<svg xmlns="http://www.w3.org/2000/svg" viewBox="0 0 64 64" width="64" height="64">
  <defs>
    <linearGradient id="bg" x1="0" y1="0" x2="0" y2="1">
      <stop offset="0%" stop-color="#FFD4DE"/>
      <stop offset="100%" stop-color="#FFA8BC"/>
    </linearGradient>
  </defs>
  <circle cx="32" cy="32" r="30" fill="url(#bg)"/>
  <ellipse cx="16" cy="20" rx="6" ry="8" fill="#FF9EB5" transform="rotate(-20 16 20)"/>
  <ellipse cx="48" cy="20" rx="6" ry="8" fill="#FF9EB5" transform="rotate(20 48 20)"/>
  <ellipse cx="32" cy="36" rx="20" ry="17" fill="#FFC2D1"/>
  <circle cx="18" cy="40" r="4" fill="#FF9EB5" opacity="0.55"/>
  <circle cx="46" cy="40" r="4" fill="#FF9EB5" opacity="0.55"/>
  <ellipse cx="25" cy="32" rx="2.8" ry="3.5" fill="#3A2E2E"/>
  <ellipse cx="39" cy="32" rx="2.8" ry="3.5" fill="#3A2E2E"/>
  <circle cx="26" cy="30.5" r="1" fill="#fff"/>
  <circle cx="40" cy="30.5" r="1" fill="#fff"/>
  <ellipse cx="32" cy="42" rx="7" ry="5.5" fill="#FF9EB5"/>
  <ellipse cx="29" cy="42" rx="1.5" ry="2.5" fill="#C96B82"/>
  <ellipse cx="35" cy="42" rx="1.5" ry="2.5" fill="#C96B82"/>
  <path d="M28 47 Q32 50 36 47" stroke="#C96B82" stroke-width="1.5" fill="none" stroke-linecap="round"/>
</svg>
